PathFileType	4	(X/Y/Z)	44_1_34_p1_0-193_filt_butterworth.trc
DataRate	CameraRate	NumFrames	NumMarkers	Units	OrigDataRate	OrigDataStartFrame	OrigNumFrames
59.0	59.0	7	27	m	59.0	48	193
Frame#	Time	RHip			RKnee			RAnkle			RBigToe			RSmallToe			RHeel			LHip			LKnee			LAnkle			LBigToe			LSmallToe			LHeel			Neck			Head			Nose			RShoulder			RElbow			RWrist			RThumb			RIndex			RPinky			LShoulder			LElbow			LWrist			LThumb			LIndex			LPinky			
		X1	Y1	Z1	X2	Y2	Z2	X3	Y3	Z3	X4	Y4	Z4	X5	Y5	Z5	X6	Y6	Z6	X7	Y7	Z7	X8	Y8	Z8	X9	Y9	Z9	X10	Y10	Z10	X11	Y11	Z11	X12	Y12	Z12	X13	Y13	Z13	X14	Y14	Z14	X15	Y15	Z15	X16	Y16	Z16	X17	Y17	Z17	X18	Y18	Z18	X19	Y19	Z19	X20	Y20	Z20	X21	Y21	Z21	X22	Y22	Z22	X23	Y23	Z23	X24	Y24	Z24	X25	Y25	Z25	X26	Y26	Z26	X27	Y27	Z27	
48	0.8135593220338984	0.3165672492306168	0.5165312584904977	1.024858315911212	0.34168465406360965	0.5471126290917439	1.4130486365578212	0.3624145949030591	0.638427122997532	1.852081177464581	0.31286222924680773	0.49897495031328365	1.9042391248588881	0.3865406002973048	0.4678165369365162	1.879537411769669	0.3331547587036126	0.7323152343064511	1.9217367370675666	0.10584801212625063	0.5290649497360269	1.0497830529585794	0.1170561218979134	0.5713800674146184	1.4302866156333653	0.1432724900127193	0.6361281761983321	1.8578865774551805	0.145232595445596	0.4489745432206042	1.8722925465659692	0.08867626921887997	0.5095302478476356	1.8863994517497162	0.16278694026703705	0.7019760804889418	1.9144367485876854	0.2010299781266135	0.4016643125516571	0.5036296262897285	0.2115721645097636	0.31191989180719215	0.2684146882384548	0.20961868315234078	0.25994101726400193	0.3870764944145571	0.34214714681210484	0.3832570638454356	0.5850506476807313	0.35910469781043797	0.39655195295547463	0.846340294277457	0.25499894107422094	0.3912713876694495	1.0423097725336925	0.21392217413545364	0.36258627012981115	1.1220853552409782	0.21364540580352093	0.36138374411011276	1.1485981240711065	0.21777707054937445	0.3510561291907203	1.1421672193301828	0.05072181620625854	0.3982859964634032	0.5810293981651088	0.03646135336107574	0.4391143750687291	0.8607904048126165	0.1487650520870071	0.3886365399283255	1.034919770310199	0.23844149033520567	0.3448896057323722	1.0725882907534625	0.23688359623530683	0.3407629047161941	1.1269889682880385	0.18426510579336866	0.39845414678208524	1.1630854119388712
49	0.8305084745762712	0.31601931152510976	0.5166306437082503	1.0247767979070699	0.34206152900117315	0.5464053859114465	1.4128865803384427	0.36249460940941347	0.6385674289396979	1.852096805908521	0.3123870455238757	0.49906362408116706	1.904289049145253	0.38480728382558615	0.46708643268183153	1.8792348259508596	0.3323995172990843	0.731914484226904	1.921272035334666	0.10677561331647227	0.5293554437076055	1.0489302870677466	0.11685357033184503	0.5717678322714939	1.4306907098872355	0.1432759667018879	0.6361065642750704	1.8580253362756196	0.14523728282735293	0.44892095079857636	1.873550351035747	0.08861095190000266	0.510746046586605	1.8862792073164305	0.16382810696663322	0.6975375880116267	1.9112634088228382	0.20134483271529172	0.40184103869463983	0.505507895198216	0.21349765082325844	0.30915276411844556	0.2690051938038146	0.2115720524672628	0.2612167555487836	0.389476150502495	0.34114163724108393	0.3831728001388698	0.5850349883063869	0.3591135194311914	0.39668594040868743	0.8462572707412037	0.25643651514183463	0.391725930378429	1.0422647817980402	0.21284557027087478	0.3624962691390625	1.121664464827785	0.2136615713952692	0.36140523390153934	1.1487056450746242	0.21778338455435486	0.350607843714472	1.14206630009838	0.05071628435312914	0.3983060593886825	0.5810168222318693	0.03646283820549305	0.43901954285227585	0.8607689060660613	0.1487273833119212	0.38874652650263547	1.0345550688201843	0.23839817877144182	0.3448712568384496	1.0725593658254247	0.23682359168293043	0.3407122650918252	1.1268990032164958	0.18382360439918183	0.39976087887182926	1.1631856051840115
50	0.847457627118644	0.314490510593289	0.5162548429992636	1.0245274449290696	0.34230881765531274	0.5457645268605231	1.4123554674469974	0.36265319562721177	0.6386815257132745	1.8521303814843935	0.31215253611669114	0.4992286744366905	1.9044407330910316	0.3835066192890626	0.4668195831760739	1.879135053134367	0.33156657879982915	0.7319125911917272	1.9212863348199567	0.10798852832935393	0.5294602199425825	1.0477941885314608	0.11753063797770061	0.5718990154579967	1.4307065528917997	0.14326551154088762	0.6361537446697616	1.8581173210946311	0.14515898185740087	0.44867740251144306	1.87397152308482	0.08887111361921449	0.5140189256213726	1.8872407910165059	0.16442644897548847	0.6960398960018737	1.9118381418472201	0.20165218036615784	0.40179738720505287	0.5071478842586896	0.2139452081633411	0.30545543445118317	0.2690301981944502	0.21409979092513282	0.26200401067663004	0.3926622031223454	0.3397181751607533	0.3830786110910589	0.5850227695459853	0.3591273650696578	0.39680668320029505	0.8462166305576473	0.2575236171674481	0.3920996788679967	1.042246778406515	0.21114127696852178	0.36222238381135086	1.1225774966711326	0.2136723310617038	0.3614013647010404	1.1488197520224708	0.21780584971837244	0.3502619473740538	1.1420234707429315	0.05072208938111599	0.39830636058305247	0.5810037638866886	0.0364573004633447	0.4390098929777142	0.8607590082050033	0.14866073682898798	0.3889111705062699	1.0339842975864908	0.23826863274773147	0.34467644377191325	1.0724688449623159	0.23672035469341346	0.3406413063650102	1.1268082504174817	0.18309628226983066	0.4020083912363931	1.1628447468373038
51	0.864406779661017	0.31290887217360125	0.5158602223499815	1.0240433569572966	0.34242551488451306	0.5455620806494713	1.411694762424001	0.36269252777151534	0.6384778054702296	1.8520769038524139	0.31207312723851327	0.49930386622402434	1.904503977896943	0.3830109770252574	0.46682342752210404	1.8791490146980205	0.33088526530437046	0.7314978248066151	1.921332286673748	0.10885536354503905	0.5295725007791379	1.046889382497625	0.11855828113674372	0.571921693588108	1.430885158983529	0.14324836659489387	0.6362510116764509	1.8581239720767004	0.1450845959327455	0.44853641229165997	1.8739374158661244	0.08976920297515516	0.5185277557181336	1.8901919313942637	0.1646340337776575	0.6962938563293638	1.914596384294081	0.2018743830856211	0.4011377253584246	0.5083111214374871	0.21319894909165726	0.3024422798493775	0.26901485780293755	0.2170393062927049	0.26076519123191466	0.39597326411118977	0.3386412516890419	0.3831136139161256	0.5851842509660908	0.35912418297005155	0.39685624175791323	0.8466518839144032	0.2579544920762897	0.39233259907181905	1.0422977817056782	0.20993582025443586	0.3620665063569621	1.124013430614227	0.21367062843633525	0.3614333132311643	1.1488788237068754	0.2177783379651262	0.35149240807522064	1.142411788103865	0.05073606775864913	0.39828778719904695	0.5809661327931365	0.03645204497235347	0.43931695096427004	0.860824762335588	0.14862709511173916	0.3891092934273066	1.0336900973442114	0.2377706717996279	0.3442177346565513	1.0723120592308981	0.23661316210119723	0.34057541655779466	1.1267674034693778	0.18268108797317714	0.40340187483896445	1.162264850515794
52	0.8813559322033898	0.3124409783295776	0.5156044620328768	1.0233923879814397	0.3420736576344819	0.5456725723798135	1.4109524006570142	0.36221926423993756	0.6378030451950758	1.8518545575692655	0.3116418065881284	0.49905136083990215	1.9043655164926376	0.3830188293971761	0.46687172399156807	1.8791769362790203	0.3304599646374309	0.7308058143877472	1.9215702568007638	0.10913266391984071	0.5298836645304499	1.0464648049850698	0.11929680944712234	0.5718350435593883	1.4302049349642125	0.14324911281410768	0.6363602794009573	1.8580181498711417	0.14518298036436914	0.4486346781992299	1.8738855714257578	0.09112630986841407	0.522062420575549	1.8946933119240439	0.16463641609857727	0.6966847977884935	1.9167463027929934	0.2016057870127292	0.400457899455728	0.5091399039683026	0.21231581096868382	0.3010107225674166	0.269189210126692	0.21985266939074619	0.2560196406630535	0.39855490983612263	0.3383137499792062	0.3832641936965124	0.5857668430030006	0.3590867349235226	0.39682867130243393	0.8480924119515556	0.2579604615626189	0.39247958366084124	1.042402739180568	0.2096067754476873	0.3623350542367814	1.1256043153094553	0.21365214609661798	0.36154855959846954	1.1489013597336248	0.21765288898370597	0.3560167433119419	1.1436405744438223	0.050757614396462855	0.3982646949363685	0.5809014998324277	0.03646389872543515	0.4401101426981051	0.8610033682057752	0.1486738570440157	0.38928878258124316	1.0340059135302186	0.236718125035063	0.3435544684825651	1.072224679039473	0.23655937651789782	0.3405408196914761	1.12682120753651	0.18260763074782818	0.40380212266226767	1.161935611096105
53	0.8983050847457628	0.3131366424176723	0.5155787900531665	1.0226247210228663	0.34114734621764836	0.5457961071152366	1.410046128091085	0.3609524791585788	0.6369337662468537	1.8515428385450161	0.31048777074742867	0.4983490506604553	1.9040281675820085	0.38313904459679243	0.46689206775828707	1.8791824304477847	0.329946989255345	0.7306278647770277	1.9222605929825325	0.10907283408386219	0.530348972308724	1.0464100785308335	0.11961222374864253	0.5716198529163795	1.4275012300627146	0.14327580776089224	0.6364338360225086	1.8577678586457784	0.14568302257323967	0.44908110491205605	1.8740058244473448	0.09217029217630202	0.5233270078491278	1.898352974152242	0.16464006667162587	0.6966420048817741	1.91735665501495	0.20057960932623006	0.4002435739264745	0.5103257025270445	0.21190618580733855	0.3008245335227008	0.26972306581082206	0.22188797738989177	0.24756766421444246	0.4002653994131047	0.33846040525885723	0.38327966202603087	0.5867234212455055	0.3590226988652221	0.3967975244225356	0.8504224701758726	0.2578374721294637	0.39253537642070074	1.042496704883296	0.20977827436789154	0.3630500901437742	1.127581779032366	0.21362320963118991	0.3617273952071002	1.1489572231482674	0.21746386823596092	0.36355458500909027	1.1455959969024352	0.0507757768277118	0.3982650522104717	0.5809229039339417	0.03649785287156398	0.4411535721924102	0.8612360127703604	0.1487606492859167	0.3893745027032564	1.034597291014892	0.23544960957469574	0.3430262376207112	1.0725538330202984	0.2365855273664394	0.3405403572795841	1.1269533617589058	0.18268492490295277	0.40375396210738235	1.162015638986576
54	0.9152542372881356	0.31399490542145925	0.5157627433361768	1.0218136970070324	0.3402429232043034	0.5456648028629256	1.4095776925234142	0.359258088031277	0.6363330181362011	1.8513201844544243	0.3089282935286792	0.4974768258686569	1.903640017288395	0.3832034497341614	0.4668961102925392	1.8791673935537345	0.3289758964197318	0.7322523988770471	1.9232367790352667	0.10894011007118407	0.53069850642946	1.0465263703032992	0.11966194140899084	0.5713748752572185	1.4238966642185733	0.14329735801500823	0.6364363908995081	1.857438205199056	0.146527316933842	0.4498084684811147	1.8742442425099064	0.09220622318025429	0.5228490746861985	1.8988420556684016	0.16459504980787573	0.6967617742139206	1.917295496816068	0.19916238313848628	0.4003429994801713	0.5124598484466543	0.21187965182776813	0.3012184197651015	0.27069599376063763	0.22312532886089692	0.23773854150839488	0.4018450240806166	0.3386214114666651	0.38301199453113	0.5872252372716831	0.3590148883449126	0.39687554748255305	0.8527064656455683	0.25770581688510164	0.3924139273568894	1.042531582236902	0.20998535834561396	0.36393613065549807	1.1298152343881644	0.2135968640579658	0.36189883780459603	1.1490564373157592	0.2173062391215483	0.3710031402372305	1.1474777514837866	0.050761092871545566	0.39834630607519306	0.5813106927285892	0.03654392569345042	0.44191682101125584	0.8614579531744565	0.1488057291031977	0.3892736065274518	1.03497197616318	0.23456786898397775	0.3429413777214113	1.0735341914069274	0.2365594274132618	0.3408255190822068	1.1271453720533493	0.18284975050794522	0.40347821959559854	1.1621563299988198
